<svg xmlns="http://www.w3.org/2000/svg" version="1.1" xmlns:xlink="http://www.w3.org/1999/xlink" width="54" height="42"><svg width="54" height="42" viewBox="0 0 54 42" fill="none" xmlns="http://www.w3.org/2000/svg">
<path d="M11.3823 0.755163L10.6923 3.68516C10.5723 4.19516 10.8823 4.71516 11.3923 4.84516L23.3923 7.95516C23.9023 8.08516 24.4223 7.78516 24.5723 7.27516L25.3723 4.40516C25.5123 3.88516 25.2123 3.34516 24.6823 3.20516L12.5823 0.0251622C12.0523 -0.0948378 11.5123 0.225163 11.3823 0.755163Z" fill="#4A625F"></path>
<path d="M9.00228 7.79516L5.84228 19.3152C5.69228 19.8452 6.02228 20.3852 6.55228 20.5152L13.5523 22.1452C14.1623 22.2852 14.7423 21.8152 14.7423 21.1952L14.6123 8.98516C14.6123 8.54516 14.3023 8.16516 13.8823 8.05516L10.1723 7.12516C9.66228 6.98516 9.14228 7.29516 9.00228 7.79516Z" fill="#4A625F"></path>
<path d="M6.05228 26.4752L6.73228 23.8952C6.86228 23.3852 7.39228 23.0752 7.91228 23.2052L20.2123 26.3452C20.7223 26.4752 21.0323 26.9852 20.9123 27.4952L20.3323 30.0452C20.2123 30.5752 19.6823 30.9052 19.1523 30.7652L6.75228 27.6652C6.23228 27.5352 5.92228 26.9952 6.05228 26.4752Z" fill="#4A625F"></path>
<path d="M50.9423 40.5852L53.0723 37.2052C53.1023 37.1652 53.1323 37.1152 53.1723 37.0752C53.2623 36.9652 53.4123 36.6452 52.6623 36.1452C51.8623 35.6152 38.5923 27.3452 34.7223 24.9352C34.1523 24.5752 33.7623 23.9852 33.6923 23.3052C33.6023 22.3952 33.1123 21.1952 31.1523 21.4152C30.8723 21.4452 30.5923 21.5352 30.3423 21.6752C29.5423 22.1052 27.8623 23.2952 27.9623 25.5652C28.0523 27.6152 29.7023 27.8252 30.7223 27.7452C31.2723 27.7052 31.8223 27.8752 32.2523 28.2252L48.0523 40.8952C48.5523 41.2952 49.2023 41.4752 49.8223 41.3452C50.2323 41.2752 50.6423 41.0552 50.9423 40.5852Z" fill="#4A625F"></path>
<path d="M15.8223 9.62516V11.4352" stroke="#4A625F" stroke-width="0.8762" stroke-miterlimit="10" stroke-linecap="round"></path>
<path d="M21.7323 9.12516V10.6752" stroke="#4A625F" stroke-width="0.8101" stroke-miterlimit="10" stroke-linecap="round"></path>
<path d="M15.8223 10.7952H26.6723L29.2423 5.83516" stroke="#4A625F" stroke-width="0.3241" stroke-miterlimit="10" stroke-linecap="round"></path>
<path d="M30.7423 3.32516V10.7952L28.0723 10.6952L26.4823 13.5952H14.6623" stroke="#4A625F" stroke-width="0.3241" stroke-miterlimit="10"></path>
<path d="M25.8823 12.2952H14.6523" stroke="#4A625F" stroke-width="0.3241" stroke-miterlimit="10" stroke-linecap="round"></path>
<path d="M26.4823 13.5952H27.0423V16.2652H17.2723V22.9652" stroke="#4A625F" stroke-width="0.3241" stroke-miterlimit="10" stroke-linecap="round"></path>
<path d="M26.8523 14.8652H15.8223V22.9652" stroke="#4A625F" stroke-width="0.3241" stroke-miterlimit="10" stroke-linecap="round"></path>
<path d="M32.4523 7.39516V12.4852H30.4323L27.6323 17.6252H18.7923V23.5052" stroke="#4A625F" stroke-width="0.3241" stroke-miterlimit="10" stroke-linecap="round"></path>
<path d="M34.2823 9.82516V13.5952H31.7923L29.2423 18.9152H20.3123V23.7352" stroke="#4A625F" stroke-width="0.3241" stroke-miterlimit="10" stroke-linecap="round"></path>
<path d="M34.8323 17.5452H31.4823L30.0823 20.1152H21.7323V24.9052" stroke="#4A625F" stroke-width="0.3241" stroke-miterlimit="10" stroke-linecap="round"></path>
<path d="M25.3723 22.7652L26.8523 24.0852L28.2823 20.9352" stroke="#4A625F" stroke-width="0.3241" stroke-miterlimit="10" stroke-linecap="round"></path>
<path d="M19.7323 24.5152V26.4252" stroke="#4A625F" stroke-width="0.3241" stroke-miterlimit="10" stroke-linecap="round"></path>
<path d="M30.8223 3.39516C31.4187 3.39516 31.9023 2.91163 31.9023 2.31516C31.9023 1.71869 31.4187 1.23516 30.8223 1.23516C30.2258 1.23516 29.7423 1.71869 29.7423 2.31516C29.7423 2.91163 30.2258 3.39516 30.8223 3.39516Z" fill="#3BBFBD"></path>
<path d="M30.5823 7.53516C31.1788 7.53516 31.6623 7.05163 31.6623 6.45516C31.6623 5.85869 31.1788 5.37516 30.5823 5.37516C29.9858 5.37516 29.5023 5.85869 29.5023 6.45516C29.5023 7.05163 29.9858 7.53516 30.5823 7.53516Z" fill="#3BBFBD"></path>
<path d="M34.2823 9.90516C34.8787 9.90516 35.3623 9.42163 35.3623 8.82516C35.3623 8.2287 34.8787 7.74516 34.2823 7.74516C33.6858 7.74516 33.2023 8.2287 33.2023 8.82516C33.2023 9.42163 33.6858 9.90516 34.2823 9.90516Z" fill="#3BBFBD"></path>
<path d="M35.7423 18.6252C36.3387 18.6252 36.8223 18.1416 36.8223 17.5452C36.8223 16.9487 36.3387 16.4652 35.7423 16.4652C35.1458 16.4652 34.6623 16.9487 34.6623 17.5452C34.6623 18.1416 35.1458 18.6252 35.7423 18.6252Z" fill="#3BBFBD"></path>
<path d="M24.5423 23.0952C25.1387 23.0952 25.6223 22.6116 25.6223 22.0152C25.6223 21.4187 25.1387 20.9352 24.5423 20.9352C23.9458 20.9352 23.4623 21.4187 23.4623 22.0152C23.4623 22.6116 23.9458 23.0952 24.5423 23.0952Z" fill="#3BBFBD"></path>
<path d="M10.9123 34.7352H5.19228C5.19228 34.7352 5.29228 32.2652 7.66228 32.2652C10.0323 32.2652 23.9323 32.2652 23.9323 32.2652C23.9323 32.2652 26.8523 32.0352 27.0023 34.7352" fill="#4A625F"></path>
<path d="M21.3623 34.7352V35.2252H27.2423C27.2423 35.2252 31.2123 36.0852 30.9423 40.5552H0.00228012C0.00228012 40.5552 -0.227719 35.8652 3.93228 35.3052L11.1723 35.3452V34.7452" fill="#4A625F"></path>
</svg><style>@media (prefers-color-scheme: light) { :root { filter: none; } }
@media (prefers-color-scheme: dark) { :root { filter: none; } }
</style></svg>