<svg width="20" height="20" viewBox="0 0 20 20" fill="none" xmlns="http://www.w3.org/2000/svg">
<path d="M6.60017 11.2243C7.77505 11.2244 8.71638 12.1758 8.71638 13.3591V16.1999C8.71632 17.3747 7.77501 18.3325 6.60017 18.3327H3.78279C2.61637 18.3324 1.66665 17.3747 1.66658 16.1999V13.3591C1.66658 12.1759 2.61633 11.2245 3.78279 11.2243H6.60017ZM16.2164 11.2243C17.3831 11.2243 18.3336 12.1757 18.3336 13.3591V16.1999C18.3335 17.3748 17.383 18.3327 16.2164 18.3327H13.4C12.225 18.3327 11.2838 17.3748 11.2838 16.1999V13.3591C11.2838 12.1757 12.225 11.2243 13.4 11.2243H16.2164ZM6.60017 1.66667C7.77493 1.66681 8.71618 2.62489 8.71638 3.80046V6.64128C8.71638 7.82453 7.77505 8.77493 6.60017 8.77507H3.78279C2.61633 8.77482 1.66658 7.82446 1.66658 6.64128V3.80046C1.66678 2.62495 2.61646 1.66692 3.78279 1.66667H6.60017ZM16.2164 1.66667C17.3829 1.66667 18.3334 2.6248 18.3336 3.80046V6.64128C18.3336 7.82461 17.3831 8.77507 16.2164 8.77507H13.4C12.225 8.77506 11.2838 7.82461 11.2838 6.64128V3.80046C11.284 2.62481 12.2251 1.66668 13.4 1.66667H16.2164Z" fill="#060606"/>
</svg>
