<svg width="15" height="15" viewBox="0 0 15 15" fill="none" xmlns="http://www.w3.org/2000/svg">
<path d="M5.49988 10L7.50022 12.0003L9.50057 10" stroke="#3DBDBC" stroke-width="1.5" stroke-linecap="round" stroke-linejoin="round"/>
<path d="M7.49988 7.49921V12" stroke="#3DBDBC" stroke-width="1.5" stroke-linecap="round" stroke-linejoin="round"/>
<path d="M11.9412 10.5443C12.376 10.2386 12.702 9.80227 12.872 9.29868C13.042 8.79509 13.0471 8.25043 12.8866 7.74375C12.726 7.23707 12.4082 6.79472 11.9792 6.4809C11.5503 6.16708 11.0325 5.99812 10.501 5.99854H9.87084C9.72044 5.41237 9.43901 4.86796 9.04776 4.4063C8.65651 3.94464 8.16562 3.57775 7.61206 3.33325C7.05849 3.08875 6.45667 2.97302 5.85191 2.99477C5.24715 3.01652 4.6552 3.17518 4.12062 3.45881C3.58605 3.74243 3.12279 4.14364 2.76571 4.63221C2.40863 5.12079 2.16703 5.684 2.05912 6.27946C1.95121 6.87491 1.97978 7.48709 2.14269 8.0699C2.30561 8.65272 2.59861 9.19098 2.99965 9.64417" stroke="#3DBDBC" stroke-width="1.5" stroke-linecap="round" stroke-linejoin="round"/>
</svg>
