<svg width="20" height="20" viewBox="0 0 20 20" fill="none" xmlns="http://www.w3.org/2000/svg">
<g clip-path="url(#clip0_432_7911)">
<path d="M3.46154 1.34615C3.46154 1.03846 3.19231 0.769226 2.88462 0.769226H1.34616C1.03846 0.769226 0.769234 1.03846 0.769234 1.34615V13.2692C0.769234 13.5769 1.03846 13.8461 1.34616 13.8461H2.88462C3.19231 13.8461 3.46154 13.5769 3.46154 13.2692V1.34615Z" fill="#060606"/>
<path d="M19.2308 1.34615C19.2308 1.03846 18.9615 0.769226 18.6539 0.769226H17.1154C16.8077 0.769226 16.5385 1.03846 16.5385 1.34615V13.2692C16.5385 13.5769 16.8077 13.8461 17.1154 13.8461H18.6539C18.9615 13.8461 19.2308 13.5769 19.2308 13.2692V1.34615Z" fill="#060606"/>
<path d="M14.4231 0.769226H13.2692C12.9615 0.769226 12.6923 1.07692 12.6923 1.38461V6.15384C12.6923 6.30769 12.7692 6.42307 12.9231 6.49999C13.5769 6.84615 14.1538 7.26923 14.6538 7.76923C14.7692 7.88461 15 7.80769 15 7.65384V1.38461C15 1.07692 14.7308 0.769226 14.4231 0.769226Z" fill="#060606"/>
<path d="M9.26923 5.84615C9.5 5.80769 9.76923 5.80769 10 5.80769C10.2308 5.80769 10.5 5.80769 10.7308 5.84615C10.9615 5.88461 11.1538 5.6923 11.1538 5.46153V1.38461C11.1538 1.07692 10.8846 0.769226 10.5769 0.769226H9.42308C9.11538 0.769226 8.84615 1.07692 8.84615 1.38461V5.46153C8.84615 5.6923 9.03846 5.88461 9.26923 5.84615Z" fill="#060606"/>
<path d="M5.34615 7.76923C5.84615 7.23076 6.46154 6.80769 7.11538 6.49999C7.23077 6.42307 7.30769 6.30769 7.30769 6.15384V1.38461C7.30769 1.07692 7.03846 0.769226 6.73077 0.769226H5.57692C5.26923 0.769226 5 1.07692 5 1.38461V7.65384C5 7.80769 5.19231 7.88461 5.34615 7.76923Z" fill="#060606"/>
<path d="M10 7.34616C7.23077 7.34616 5 9.57693 5 12.3462C5 13.1923 5.23077 14.0385 5.61539 14.7308L2.88462 17.4615C2.65385 17.6923 2.65385 18.0385 2.88462 18.2692L3.69231 19.0769C3.92308 19.3077 4.26923 19.3077 4.5 19.0769L7.15385 16.4231C7.96154 17 8.96154 17.3462 10 17.3462C12.7692 17.3462 15 15.1154 15 12.3462C15 9.57693 12.7692 7.34616 10 7.34616ZM10 15.0385C8.5 15.0385 7.30769 13.8462 7.30769 12.3462C7.30769 10.8462 8.5 9.65385 10 9.65385C11.5 9.65385 12.6923 10.8462 12.6923 12.3462C12.6923 13.8462 11.5 15.0385 10 15.0385Z" fill="#060606"/>
</g>
<defs>
<clipPath id="clip0_432_7911">
<rect width="20" height="20" fill="white"/>
</clipPath>
</defs>
</svg>
