<svg width="16" height="16" viewBox="0 0 16 16" fill="none" xmlns="http://www.w3.org/2000/svg">
<path d="M14.6582 13.794C15.1224 13.794 15.5 14.1772 15.5 14.6475C15.4999 15.1185 15.1224 15.5 14.6582 15.5H9.89943C9.43541 15.4998 9.05778 15.1184 9.05763 14.6475C9.05763 14.1773 9.43532 13.7941 9.89943 13.794H14.6582ZM8.20119 1.29786C8.96168 0.321426 10.2884 0.231996 11.3584 1.08302L12.5869 2.0586C13.091 2.45276 13.427 2.97309 13.542 3.51954C13.6746 4.12054 13.5336 4.71115 13.1358 5.22169L5.81349 14.6895C5.47752 15.1194 4.98263 15.3621 4.45216 15.3711L1.53322 15.4063C1.37425 15.4061 1.24141 15.2986 1.20607 15.1465L0.542984 12.2715C0.428051 11.7431 0.543063 11.1964 0.878921 10.7754L6.07033 4.05665C6.15876 3.94926 6.31776 3.93208 6.42384 4.01173L8.60841 5.75001C8.74986 5.86627 8.94427 5.92919 9.14748 5.90235C9.58075 5.84861 9.8723 5.45421 9.82814 5.03321C9.80164 4.81842 9.69599 4.63922 9.5547 4.50489C9.51049 4.46906 7.43166 2.80274 7.43166 2.80274C7.29907 2.69523 7.27282 2.49772 7.37892 2.36427L8.20119 1.29786Z" fill="#060606"/>
</svg>
