<svg width="20" height="20" viewBox="0 0 20 20" fill="none" xmlns="http://www.w3.org/2000/svg">
<path d="M6.66676 0.000244141V15.0002H18.3334V0.000244141H6.66676ZM15.7909 6.2386C15.7976 6.2711 15.8117 6.31278 15.8334 6.35942C15.9476 6.61274 16.0834 7.09274 16.0926 7.97442C16.0943 8.11692 16.0818 8.2586 16.0534 8.39442C15.8742 9.25274 15.3409 9.96024 14.5876 10.3552L14.3968 10.4552C14.0551 10.6094 13.6993 10.8186 13.5576 10.9419C13.4543 11.2836 13.1359 11.5327 12.7601 11.5327C12.3843 11.5327 12.0659 11.2836 11.9626 10.9419C11.8218 10.8194 11.4709 10.6119 11.1726 10.4786L10.9334 10.3553C10.1801 9.96028 9.64672 9.25278 9.4709 8.41278C9.43922 8.2586 9.4259 8.11696 9.42758 7.97528C9.43758 7.09278 9.57258 6.61278 9.68426 6.36446C9.70844 6.31278 9.72344 6.27114 9.73008 6.23614C9.7809 5.99446 9.63676 5.79614 9.63508 5.79446C9.3684 5.49196 9.3559 5.04028 9.6084 4.72446L10.1292 4.06946C10.3025 3.85196 10.5659 3.73196 10.8509 3.75778C11.1009 3.7786 11.3267 3.9111 11.4667 4.11528C11.4942 4.13446 11.5934 4.1911 11.8225 4.1911C11.9367 4.1911 12.005 4.17778 12.0417 4.16692C12.3342 3.66442 13.1859 3.66442 13.4792 4.16692C13.515 4.17774 13.5842 4.1911 13.6975 4.1911C13.9275 4.1911 14.0267 4.13442 14.0534 4.11528C14.1942 3.9111 14.4192 3.7786 14.6692 3.75778C14.9559 3.73196 15.2184 3.85196 15.3909 4.06946L15.9117 4.72446C16.1642 5.04028 16.1525 5.49196 15.885 5.79446C15.8851 5.79442 15.7384 5.99024 15.7909 6.2386Z" fill="#060606"/>
<path d="M1.6666 17.9008C1.6666 19.0583 2.60828 20 3.76578 20H18.3333V16.6667H1.6666V17.9008Z" fill="#060606"/>
<path d="M4.99992 0H3.76574C2.60824 0 1.6666 0.94168 1.6666 2.09918V15H4.99992V0Z" fill="#060606"/>
</svg>
