<svg width="24" height="24" viewBox="0 0 24 24" fill="none" xmlns="http://www.w3.org/2000/svg">
<path d="M5.59999 12.8H4.79999V11.2H5.59999C6.04181 11.2 6.39999 11.5582 6.39999 12C6.39999 12.4418 6.04181 12.8 5.59999 12.8Z" fill="#060606"/>
<path d="M11.2 16V11.2H12C12.4418 11.2 12.8 11.5582 12.8 12V15.2C12.8 15.6418 12.4418 16 12 16H11.2Z" fill="#060606"/>
<path fill-rule="evenodd" clip-rule="evenodd" d="M1.59961 2.4C1.59961 1.07452 2.67412 0 3.99961 0H17.131L22.3996 5.26862V21.6C22.3996 22.9254 21.325 24 19.9996 24H3.99961C2.67412 24 1.59961 22.9254 1.59961 21.6V2.4ZM5.59961 9.6H3.19961V17.6H4.79961V14.4H5.59961C6.9251 14.4 7.99961 13.3255 7.99961 12C7.99961 10.6745 6.9251 9.6 5.59961 9.6ZM11.9996 9.6H9.59961V17.6H11.9996C13.3251 17.6 14.3996 16.5254 14.3996 15.2V12C14.3996 10.6745 13.3251 9.6 11.9996 9.6ZM15.9996 17.6V9.6H20.7996V11.2H17.5996V12.8H19.1996V14.4H17.5996V17.6H15.9996Z" fill="#060606"/>
</svg>
