<svg width="157" height="42" viewBox="0 0 157 42" fill="none" xmlns="http://www.w3.org/2000/svg">
<path d="M11.3823 0.755163L10.6923 3.68516C10.5723 4.19516 10.8823 4.71516 11.3923 4.84516L23.3923 7.95516C23.9023 8.08516 24.4223 7.78516 24.5723 7.27516L25.3723 4.40516C25.5123 3.88516 25.2123 3.34516 24.6823 3.20516L12.5823 0.0251622C12.0523 -0.0948378 11.5123 0.225163 11.3823 0.755163Z" fill="#4A625F"/>
<path d="M9.00228 7.79516L5.84228 19.3152C5.69228 19.8452 6.02228 20.3852 6.55228 20.5152L13.5523 22.1452C14.1623 22.2852 14.7423 21.8152 14.7423 21.1952L14.6123 8.98516C14.6123 8.54516 14.3023 8.16516 13.8823 8.05516L10.1723 7.12516C9.66228 6.98516 9.14228 7.29516 9.00228 7.79516Z" fill="#4A625F"/>
<path d="M6.05228 26.4752L6.73228 23.8952C6.86228 23.3852 7.39228 23.0752 7.91228 23.2052L20.2123 26.3452C20.7223 26.4752 21.0323 26.9852 20.9123 27.4952L20.3323 30.0452C20.2123 30.5752 19.6823 30.9052 19.1523 30.7652L6.75228 27.6652C6.23228 27.5352 5.92228 26.9952 6.05228 26.4752Z" fill="#4A625F"/>
<path d="M50.9423 40.5852L53.0723 37.2052C53.1023 37.1652 53.1323 37.1152 53.1723 37.0752C53.2623 36.9652 53.4123 36.6452 52.6623 36.1452C51.8623 35.6152 38.5923 27.3452 34.7223 24.9352C34.1523 24.5752 33.7623 23.9852 33.6923 23.3052C33.6023 22.3952 33.1123 21.1952 31.1523 21.4152C30.8723 21.4452 30.5923 21.5352 30.3423 21.6752C29.5423 22.1052 27.8623 23.2952 27.9623 25.5652C28.0523 27.6152 29.7023 27.8252 30.7223 27.7452C31.2723 27.7052 31.8223 27.8752 32.2523 28.2252L48.0523 40.8952C48.5523 41.2952 49.2023 41.4752 49.8223 41.3452C50.2323 41.2752 50.6423 41.0552 50.9423 40.5852Z" fill="#4A625F"/>
<path d="M15.8223 9.62516V11.4352" stroke="#4A625F" stroke-width="0.8762" stroke-miterlimit="10" stroke-linecap="round"/>
<path d="M21.7323 9.12516V10.6752" stroke="#4A625F" stroke-width="0.8101" stroke-miterlimit="10" stroke-linecap="round"/>
<path d="M15.8223 10.7952H26.6723L29.2423 5.83516" stroke="#4A625F" stroke-width="0.3241" stroke-miterlimit="10" stroke-linecap="round"/>
<path d="M30.7423 3.32516V10.7952L28.0723 10.6952L26.4823 13.5952H14.6623" stroke="#4A625F" stroke-width="0.3241" stroke-miterlimit="10"/>
<path d="M25.8823 12.2952H14.6523" stroke="#4A625F" stroke-width="0.3241" stroke-miterlimit="10" stroke-linecap="round"/>
<path d="M26.4823 13.5952H27.0423V16.2652H17.2723V22.9652" stroke="#4A625F" stroke-width="0.3241" stroke-miterlimit="10" stroke-linecap="round"/>
<path d="M26.8523 14.8652H15.8223V22.9652" stroke="#4A625F" stroke-width="0.3241" stroke-miterlimit="10" stroke-linecap="round"/>
<path d="M32.4523 7.39516V12.4852H30.4323L27.6323 17.6252H18.7923V23.5052" stroke="#4A625F" stroke-width="0.3241" stroke-miterlimit="10" stroke-linecap="round"/>
<path d="M34.2823 9.82516V13.5952H31.7923L29.2423 18.9152H20.3123V23.7352" stroke="#4A625F" stroke-width="0.3241" stroke-miterlimit="10" stroke-linecap="round"/>
<path d="M34.8323 17.5452H31.4823L30.0823 20.1152H21.7323V24.9052" stroke="#4A625F" stroke-width="0.3241" stroke-miterlimit="10" stroke-linecap="round"/>
<path d="M25.3723 22.7652L26.8523 24.0852L28.2823 20.9352" stroke="#4A625F" stroke-width="0.3241" stroke-miterlimit="10" stroke-linecap="round"/>
<path d="M19.7323 24.5152V26.4252" stroke="#4A625F" stroke-width="0.3241" stroke-miterlimit="10" stroke-linecap="round"/>
<path d="M30.8223 3.39516C31.4187 3.39516 31.9023 2.91163 31.9023 2.31516C31.9023 1.71869 31.4187 1.23516 30.8223 1.23516C30.2258 1.23516 29.7423 1.71869 29.7423 2.31516C29.7423 2.91163 30.2258 3.39516 30.8223 3.39516Z" fill="#3BBFBD"/>
<path d="M30.5823 7.53516C31.1788 7.53516 31.6623 7.05163 31.6623 6.45516C31.6623 5.85869 31.1788 5.37516 30.5823 5.37516C29.9858 5.37516 29.5023 5.85869 29.5023 6.45516C29.5023 7.05163 29.9858 7.53516 30.5823 7.53516Z" fill="#3BBFBD"/>
<path d="M34.2823 9.90516C34.8787 9.90516 35.3623 9.42163 35.3623 8.82516C35.3623 8.2287 34.8787 7.74516 34.2823 7.74516C33.6858 7.74516 33.2023 8.2287 33.2023 8.82516C33.2023 9.42163 33.6858 9.90516 34.2823 9.90516Z" fill="#3BBFBD"/>
<path d="M35.7423 18.6252C36.3387 18.6252 36.8223 18.1416 36.8223 17.5452C36.8223 16.9487 36.3387 16.4652 35.7423 16.4652C35.1458 16.4652 34.6623 16.9487 34.6623 17.5452C34.6623 18.1416 35.1458 18.6252 35.7423 18.6252Z" fill="#3BBFBD"/>
<path d="M24.5423 23.0952C25.1387 23.0952 25.6223 22.6116 25.6223 22.0152C25.6223 21.4187 25.1387 20.9352 24.5423 20.9352C23.9458 20.9352 23.4623 21.4187 23.4623 22.0152C23.4623 22.6116 23.9458 23.0952 24.5423 23.0952Z" fill="#3BBFBD"/>
<path d="M10.9123 34.7352H5.19228C5.19228 34.7352 5.29228 32.2652 7.66228 32.2652C10.0323 32.2652 23.9323 32.2652 23.9323 32.2652C23.9323 32.2652 26.8523 32.0352 27.0023 34.7352" fill="#4A625F"/>
<path d="M21.3623 34.7352V35.2252H27.2423C27.2423 35.2252 31.2123 36.0852 30.9423 40.5552H0.00228012C0.00228012 40.5552 -0.227719 35.8652 3.93228 35.3052L11.1723 35.3452V34.7452" fill="#4A625F"/>
<path d="M53.8923 30.5952C53.7423 30.4452 53.6723 30.2452 53.6723 29.9952V12.3752C53.6723 12.1152 53.7423 11.9152 53.8923 11.7752C54.0423 11.6252 54.2423 11.5552 54.4923 11.5552H56.0523C56.3123 11.5552 56.5123 11.6252 56.6523 11.7752C56.7923 11.9252 56.8723 12.1252 56.8723 12.3752V27.5252H65.7923C66.0523 27.5252 66.2523 27.5952 66.3923 27.7452C66.5423 27.8952 66.6123 28.0952 66.6123 28.3452V29.9852C66.6123 30.2452 66.5423 30.4452 66.3923 30.5852C66.2423 30.7352 66.0423 30.8052 65.7923 30.8052H54.4923C54.2423 30.8152 54.0423 30.7352 53.8923 30.5952Z" fill="#3BBFBD"/>
<path d="M69.4523 11.7652C69.6023 11.6152 69.8023 11.5452 70.0523 11.5452H81.3523C81.6123 11.5452 81.8123 11.6152 81.9523 11.7652C82.1023 11.9152 82.1723 12.1152 82.1723 12.3752V14.0052C82.1723 14.2652 82.1023 14.4652 81.9523 14.6152C81.8023 14.7652 81.6023 14.8352 81.3523 14.8352H72.4323V18.3752H79.2123C79.4723 18.3752 79.6723 18.4452 79.8123 18.5952C79.9523 18.7452 80.0323 18.9452 80.0323 19.1952V20.8452C80.0323 21.1052 79.9623 21.3052 79.8123 21.4452C79.6623 21.5952 79.4623 21.6652 79.2123 21.6652H72.4323V27.5052H81.3523C81.6123 27.5052 81.8123 27.5752 81.9523 27.7252C82.1023 27.8752 82.1723 28.0752 82.1723 28.3252V29.9852C82.1723 30.2452 82.1023 30.4452 81.9523 30.5852C81.8023 30.7352 81.6023 30.8052 81.3523 30.8052H70.0523C69.7923 30.8052 69.5923 30.7352 69.4523 30.5852C69.3023 30.4352 69.2323 30.2352 69.2323 29.9852V12.3752C69.2323 12.1152 69.3023 11.9152 69.4523 11.7652Z" fill="#3BBFBD"/>
<path d="M83.0923 21.1852C83.0923 19.9052 83.3223 18.6652 83.7923 17.4852C84.2623 16.2952 84.9123 15.2352 85.7423 14.3152C86.5723 13.3952 87.5623 12.6552 88.7023 12.1052C89.8423 11.5552 91.0823 11.2852 92.4223 11.2852H92.6923C92.8623 11.2852 92.9423 11.3652 92.9423 11.5352V14.3152C92.9423 14.4952 92.8623 14.5852 92.6923 14.5852H92.4223C91.5423 14.5852 90.7323 14.7652 89.9823 15.1352C89.2323 15.5052 88.5823 15.9852 88.0323 16.5952C87.4823 17.2052 87.0623 17.9052 86.7523 18.7052C86.4523 19.5052 86.3023 20.3352 86.3023 21.1952C86.3023 22.0552 86.4523 22.8852 86.7523 23.6752C87.0523 24.4652 87.4723 25.1652 88.0123 25.7852C88.5523 26.4052 89.1923 26.8952 89.9423 27.2552C90.6923 27.6252 91.5123 27.8052 92.4123 27.8052C93.2123 27.8052 93.9823 27.6352 94.7123 27.3052C95.4423 26.9752 96.0823 26.5252 96.6323 25.9552C97.1823 25.3852 97.6223 24.7352 97.9523 23.9952C98.2823 23.2652 98.4423 22.4852 98.4423 21.6752H95.0423C94.7823 21.6752 94.5823 21.6052 94.4423 21.4552C94.2923 21.3052 94.2223 21.1052 94.2223 20.8552V19.2052C94.2223 18.9452 94.2923 18.7452 94.4423 18.6052C94.5923 18.4552 94.7923 18.3852 95.0423 18.3852H101.322C101.362 18.3852 101.392 18.4152 101.432 18.4652V18.5752C101.542 18.9752 101.622 19.4052 101.682 19.8652C101.702 20.1052 101.712 20.3352 101.722 20.5552C101.732 20.7752 101.732 20.9952 101.732 21.2152C101.732 22.5152 101.502 23.7552 101.032 24.9452C100.562 26.1352 99.9223 27.1852 99.1023 28.1052C98.2823 29.0252 97.2923 29.7452 96.1523 30.2852C95.0123 30.8252 93.7623 31.0952 92.4023 31.0952C91.0823 31.0952 89.8623 30.8252 88.7223 30.2752C87.5923 29.7252 86.6023 28.9952 85.7623 28.0752C84.9223 27.1652 84.2623 26.1052 83.7823 24.9152C83.3223 23.7252 83.0923 22.4752 83.0923 21.1852Z" fill="#3BBFBD"/>
<path d="M105.232 12.3752C105.232 12.1152 105.302 11.9152 105.452 11.7752C105.602 11.6252 105.802 11.5552 106.052 11.5552H107.612C107.872 11.5552 108.072 11.6252 108.212 11.7752C108.352 11.9252 108.432 12.1252 108.432 12.3752V29.9852C108.432 30.2452 108.362 30.4452 108.212 30.5852C108.062 30.7352 107.862 30.8052 107.612 30.8052H106.052C105.792 30.8052 105.592 30.7352 105.452 30.5852C105.302 30.4352 105.232 30.2352 105.232 29.9852V12.3752Z" fill="#3BBFBD"/>
<path d="M111.592 17.1752C111.592 16.4452 111.732 15.7352 112.002 15.0652C112.272 14.3852 112.652 13.7852 113.122 13.2652C113.592 12.7452 114.162 12.3252 114.802 12.0152C115.452 11.7052 116.162 11.5452 116.922 11.5452H133.032C133.292 11.5452 133.492 11.6152 133.632 11.7652C133.772 11.9152 133.852 12.1152 133.852 12.3752V14.0052C133.852 14.2652 133.782 14.4652 133.632 14.6152C133.482 14.7652 133.282 14.8352 133.032 14.8352H128.502V29.9852C128.502 30.2452 128.432 30.4452 128.282 30.5852C128.142 30.7352 127.942 30.8052 127.682 30.8052H126.102C125.852 30.8052 125.652 30.7352 125.502 30.5852C125.362 30.4352 125.282 30.2352 125.282 29.9852V14.8452H116.912C116.472 14.8452 116.062 14.9852 115.692 15.2652C115.312 15.5452 115.062 15.8952 114.942 16.3152C114.832 16.6252 114.772 16.9152 114.772 17.1852C114.772 17.7352 114.902 18.2052 115.152 18.6152C115.412 19.0252 115.832 19.2752 116.412 19.3652C116.572 19.4052 116.752 19.4252 116.932 19.4452C117.112 19.4652 117.302 19.4852 117.512 19.4952L118.332 19.5252H119.152C119.902 19.5252 120.602 19.6752 121.252 19.9752C121.902 20.2752 122.472 20.6852 122.952 21.2052C123.432 21.7252 123.812 22.3252 124.092 23.0052C124.372 23.6852 124.502 24.3952 124.502 25.1452C124.502 25.8952 124.372 26.6052 124.102 27.2852C123.832 27.9652 123.462 28.5652 122.982 29.0852C122.492 29.6052 121.932 30.0252 121.282 30.3352C120.632 30.6452 119.922 30.8052 119.152 30.8052H112.922C112.662 30.8052 112.462 30.7352 112.322 30.5852C112.172 30.4352 112.102 30.2352 112.102 29.9852V28.3352C112.102 28.0752 112.172 27.8752 112.322 27.7352C112.472 27.5852 112.672 27.5152 112.922 27.5152H119.152C119.442 27.5152 119.722 27.4452 119.992 27.3052C120.262 27.1652 120.482 26.9852 120.682 26.7652C120.872 26.5452 121.022 26.2952 121.132 26.0152C121.242 25.7352 121.302 25.4452 121.302 25.1552C121.302 24.4252 121.142 23.8952 120.822 23.5652C120.502 23.2352 119.982 23.0252 119.272 22.9352L118.582 22.8852L117.842 22.8552C117.582 22.8352 117.322 22.8152 117.062 22.8052C116.792 22.7852 116.522 22.7552 116.252 22.7252C115.552 22.6152 114.922 22.3952 114.342 22.0752C113.762 21.7552 113.272 21.3552 112.862 20.8652C112.452 20.3852 112.132 19.8252 111.902 19.1952C111.712 18.5652 111.592 17.8852 111.592 17.1752Z" fill="#3BBFBD"/>
<path d="M132.062 30.4952C131.912 30.2852 131.912 30.0152 132.062 29.6852L139.282 12.0752C139.432 11.7252 139.682 11.5552 140.052 11.5552H141.812C142.182 11.5552 142.432 11.7252 142.582 12.0752L149.802 29.6852C149.952 30.0152 149.952 30.2852 149.802 30.4952C149.652 30.7052 149.402 30.8152 149.032 30.8152H146.892C146.822 30.8152 146.782 30.7852 146.782 30.7352L146.732 30.6552C146.222 29.4852 145.722 28.3152 145.232 27.1452C144.742 25.9752 144.272 24.7952 143.822 23.6052C143.342 22.4352 142.872 21.2652 142.392 20.0952C141.912 18.9252 141.432 17.7452 140.942 16.5552C140.572 17.4852 140.212 18.4052 139.842 19.3152C139.472 20.2252 139.112 21.1352 138.742 22.0452C138.372 22.9752 138.002 23.8952 137.632 24.7852C137.262 25.6752 136.872 26.5952 136.462 27.5252H143.652C144.022 27.5252 144.272 27.6952 144.422 28.0452L145.082 29.6952C145.232 30.0252 145.232 30.2952 145.082 30.5052C144.932 30.7152 144.682 30.8252 144.312 30.8252H132.842C132.462 30.8152 132.212 30.7052 132.062 30.4952Z" fill="#3BBFBD"/>
<path d="M152.862 12.3752C152.862 12.1152 152.932 11.9152 153.082 11.7752C153.232 11.6252 153.432 11.5552 153.682 11.5552H155.242C155.502 11.5552 155.702 11.6252 155.842 11.7752C155.982 11.9252 156.062 12.1252 156.062 12.3752V29.9852C156.062 30.2452 155.992 30.4452 155.842 30.5852C155.692 30.7352 155.492 30.8052 155.242 30.8052H153.682C153.422 30.8052 153.222 30.7352 153.082 30.5852C152.932 30.4352 152.862 30.2352 152.862 29.9852V12.3752Z" fill="#3BBFBD"/>
</svg>
